<svg width="1200" height="900" viewBox="0 0 1200 900" fill="none" xmlns="http://www.w3.org/2000/svg">
  <rect width="1200" height="900" rx="48" fill="#14181F"/>
  <rect x="74" y="84" width="1052" height="732" rx="28" fill="#1B2330" stroke="#314157" stroke-width="2"/>
  <rect x="126" y="146" width="300" height="38" rx="19" fill="#2F9B7A"/>
  <rect x="126" y="228" width="380" height="20" rx="10" fill="#D7E1F0" fill-opacity="0.92"/>
  <rect x="126" y="268" width="282" height="20" rx="10" fill="#8DA0B8" fill-opacity="0.76"/>
  <rect x="126" y="362" width="290" height="308" rx="24" fill="#121720" stroke="#314157" stroke-width="2"/>
  <rect x="455" y="362" width="292" height="308" rx="24" fill="#121720" stroke="#314157" stroke-width="2"/>
  <rect x="786" y="362" width="288" height="308" rx="24" fill="#121720" stroke="#314157" stroke-width="2"/>
  <rect x="158" y="398" width="116" height="116" rx="20" fill="#243246"/>
  <path d="M189 455H243" stroke="#59C9A5" stroke-width="14" stroke-linecap="round"/>
  <path d="M216 428V482" stroke="#59C9A5" stroke-width="14" stroke-linecap="round"/>
  <rect x="158" y="546" width="162" height="16" rx="8" fill="#D7E1F0"/>
  <rect x="158" y="578" width="106" height="16" rx="8" fill="#7E91A9"/>
  <rect x="487" y="398" width="228" height="20" rx="10" fill="#D7E1F0"/>
  <rect x="487" y="438" width="183" height="20" rx="10" fill="#7E91A9"/>
  <rect x="487" y="496" width="70" height="70" rx="35" fill="#243246"/>
  <circle cx="522" cy="531" r="16" stroke="#59C9A5" stroke-width="10"/>
  <path d="M546 554L567 575" stroke="#59C9A5" stroke-width="10" stroke-linecap="round"/>
  <rect x="818" y="398" width="146" height="20" rx="10" fill="#D7E1F0"/>
  <rect x="818" y="440" width="204" height="20" rx="10" fill="#7E91A9"/>
  <rect x="818" y="494" width="164" height="112" rx="20" fill="#243246"/>
  <path d="M858 564L901 525L934 548L980 500" stroke="#59C9A5" stroke-width="12" stroke-linecap="round" stroke-linejoin="round"/>
  <rect x="126" y="728" width="238" height="16" rx="8" fill="#D7E1F0"/>
  <rect x="380" y="728" width="170" height="16" rx="8" fill="#7E91A9"/>
  <rect x="566" y="728" width="198" height="16" rx="8" fill="#7E91A9"/>
  <rect x="780" y="728" width="118" height="16" rx="8" fill="#D7E1F0"/>
</svg>
