<svg width="1200" height="900" viewBox="0 0 1200 900" fill="none" xmlns="http://www.w3.org/2000/svg">
  <rect width="1200" height="900" rx="48" fill="#11161C"/>
  <rect x="92" y="84" width="1016" height="732" rx="32" fill="#18202A" stroke="#314255" stroke-width="2"/>
  <rect x="144" y="144" width="270" height="34" rx="17" fill="#C85B48"/>
  <rect x="144" y="224" width="352" height="18" rx="9" fill="#EBF1F7" fill-opacity="0.92"/>
  <rect x="144" y="260" width="248" height="18" rx="9" fill="#8FA2B9" fill-opacity="0.76"/>
  <rect x="160" y="336" width="360" height="392" rx="28" fill="#121820" stroke="#314255" stroke-width="2"/>
  <path d="M252 438H428L404 612H276L252 438Z" fill="#243242"/>
  <path d="M292 438C292 383.876 315.281 356 340 356C364.719 356 388 383.876 388 438" stroke="#C85B48" stroke-width="16" stroke-linecap="round"/>
  <rect x="584" y="336" width="460" height="182" rx="28" fill="#121820" stroke="#314255" stroke-width="2"/>
  <rect x="628" y="382" width="172" height="18" rx="9" fill="#EBF1F7"/>
  <rect x="628" y="418" width="234" height="14" rx="7" fill="#8FA2B9"/>
  <rect x="584" y="546" width="460" height="182" rx="28" fill="#121820" stroke="#314255" stroke-width="2"/>
  <rect x="628" y="592" width="252" height="18" rx="9" fill="#EBF1F7"/>
  <rect x="628" y="628" width="310" height="14" rx="7" fill="#8FA2B9"/>
  <rect x="920" y="584" width="76" height="76" rx="18" fill="#C85B48"/>
  <path d="M942 621H974" stroke="#FFF7F0" stroke-width="10" stroke-linecap="round"/>
  <path d="M958 605V637" stroke="#FFF7F0" stroke-width="10" stroke-linecap="round"/>
</svg>
