<svg width="1200" height="900" viewBox="0 0 1200 900" fill="none" xmlns="http://www.w3.org/2000/svg">
  <rect width="1200" height="900" rx="48" fill="#171417"/>
  <rect x="92" y="84" width="1016" height="732" rx="32" fill="#201C21" stroke="#3A313C" stroke-width="2"/>
  <rect x="144" y="144" width="250" height="34" rx="17" fill="#DD6B4D"/>
  <rect x="144" y="224" width="414" height="18" rx="9" fill="#F5EDE4" fill-opacity="0.92"/>
  <rect x="144" y="260" width="228" height="18" rx="9" fill="#A69A92" fill-opacity="0.78"/>
  <rect x="144" y="344" width="910" height="108" rx="24" fill="#161216" stroke="#3A313C" stroke-width="2"/>
  <rect x="180" y="378" width="42" height="42" rx="12" fill="#DD6B4D"/>
  <path d="M192 399L205 412L232 385" stroke="#FFF7F0" stroke-width="10" stroke-linecap="round" stroke-linejoin="round"/>
  <rect x="256" y="384" width="332" height="16" rx="8" fill="#F5EDE4"/>
  <rect x="256" y="414" width="210" height="14" rx="7" fill="#8A7B73"/>
  <rect x="144" y="484" width="910" height="108" rx="24" fill="#161216" stroke="#3A313C" stroke-width="2"/>
  <rect x="180" y="518" width="42" height="42" rx="12" fill="#2E8B74"/>
  <path d="M192 539L205 552L232 525" stroke="#EFFFFA" stroke-width="10" stroke-linecap="round" stroke-linejoin="round"/>
  <rect x="256" y="524" width="268" height="16" rx="8" fill="#F5EDE4"/>
  <rect x="256" y="554" width="376" height="14" rx="7" fill="#8A7B73"/>
  <rect x="144" y="624" width="910" height="108" rx="24" fill="#161216" stroke="#3A313C" stroke-width="2"/>
  <rect x="180" y="658" width="42" height="42" rx="12" fill="#274A87"/>
  <rect x="256" y="664" width="240" height="16" rx="8" fill="#F5EDE4"/>
  <rect x="256" y="694" width="188" height="14" rx="7" fill="#8A7B73"/>
</svg>
